<?xml version="1.0" standalone="no"?>
<!DOCTYPE svg PUBLIC "-//W3C//DTD SVG 20010904//EN"
 "http://www.w3.org/TR/2001/REC-SVG-20010904/DTD/svg10.dtd">
<svg version="1.0" xmlns="http://www.w3.org/2000/svg"
 width="5208.000000pt" height="5208.000000pt" viewBox="0 0 5208.000000 5208.000000"
 preserveAspectRatio="xMidYMid meet">

<g transform="translate(0.000000,5208.000000) scale(0.100000,-0.100000)"
fill="#000000" stroke="none">
<path d="M21080 35829 c-400 -52 -771 -380 -1153 -1017 -264 -440 -457 -849
-987 -2092 -390 -913 -504 -1168 -710 -1581 -159 -318 -356 -674 -422 -762
-12 -16 -23 -3 -118 125 -1602 2180 -4046 3649 -6710 4032 -551 80 -863 101
-1480 101 -604 0 -928 -21 -1445 -95 -1696 -243 -3295 -905 -4651 -1923 -595
-447 -1109 -925 -1594 -1482 -147 -169 -196 -236 -250 -341 -78 -151 -110
-294 -110 -486 0 -299 96 -535 304 -744 195 -196 425 -298 702 -311 201 -10
370 28 551 121 135 70 230 153 393 342 260 304 719 749 1039 1008 l84 68 22
-39 c13 -21 427 -731 920 -1578 494 -847 918 -1568 942 -1603 173 -243 449
-421 758 -487 101 -22 284 -29 391 -16 560 69 988 480 1080 1036 12 75 15 137
11 245 -6 158 -28 267 -86 415 -19 50 -370 663 -951 1659 -506 868 -917 1582
-915 1586 9 14 512 177 708 229 1527 408 3110 365 4610 -125 108 -36 197 -67
197 -69 0 -2 -410 -707 -911 -1567 -501 -860 -927 -1594 -945 -1631 -138 -272
-163 -625 -68 -929 95 -303 318 -569 601 -716 101 -53 264 -107 368 -123 153
-23 148 -16 62 -82 -184 -141 -312 -325 -369 -532 -30 -109 -33 -414 -5 -513
73 -261 203 -476 416 -690 185 -186 445 -371 714 -507 l157 -80 0 -46 c0 -26
7 -84 16 -130 50 -264 173 -491 365 -674 178 -170 408 -284 658 -326 48 -8
636 -11 2145 -9 l2079 2 -7 -49 c-41 -292 -97 -607 -109 -620 -4 -3 -253 -1
-555 5 -1726 38 -2803 53 -2953 42 -550 -42 -848 -304 -909 -800 -44 -360 53
-675 272 -886 152 -146 311 -228 536 -274 79 -16 168 -21 482 -30 212 -6 831
-24 1375 -40 545 -17 1000 -30 1013 -30 12 0 22 -6 22 -12 0 -17 -143 -280
-237 -438 -119 -197 -329 -510 -466 -692 -254 -338 -445 -557 -766 -878 -207
-206 -501 -477 -530 -488 -5 -1 -471 792 -1037 1763 -566 971 -1051 1796
-1079 1833 -137 183 -346 337 -565 417 -186 67 -418 90 -608 61 -263 -40 -511
-164 -692 -346 -181 -180 -301 -413 -345 -667 -20 -113 -19 -328 1 -434 21
-110 66 -248 107 -329 23 -46 1834 -3157 2066 -3552 l22 -36 -133 -52 c-776
-303 -1609 -482 -2478 -531 -255 -14 -838 -6 -1080 15 -606 54 -1136 156
-1694 326 -228 69 -673 231 -752 273 -21 12 8 63 993 1752 558 957 1030 1769
1048 1805 137 270 163 619 69 928 -32 106 -119 277 -187 367 -140 187 -347
340 -567 420 -187 67 -417 90 -608 61 -115 -17 -277 -68 -374 -117 -163 -81
-340 -228 -439 -364 -24 -33 -498 -840 -1054 -1793 -555 -952 -1013 -1732
-1017 -1732 -15 0 -276 240 -452 416 -203 203 -353 368 -553 609 -160 194
-245 269 -393 344 -181 93 -340 128 -544 118 -273 -13 -517 -120 -707 -311
-359 -360 -406 -944 -111 -1361 27 -38 111 -144 187 -235 1289 -1544 2974
-2658 4885 -3230 1738 -519 3626 -564 5385 -126 1613 401 3061 1169 4330 2294
168 149 648 629 797 797 724 817 1307 1719 1733 2688 43 97 82 177 86 177 9 0
46 -88 58 -141 13 -57 14 -940 1 -1484 -17 -726 -47 -1138 -101 -1366 -20 -86
-20 -86 -106 -175 -258 -268 -537 -688 -689 -1039 -318 -733 -275 -1363 127
-1841 259 -309 749 -559 1349 -688 848 -183 1550 -148 2440 123 1328 403 2944
1379 4628 2793 l153 129 102 -96 c166 -155 281 -289 334 -389 106 -199 224
-273 493 -310 345 -46 468 -58 537 -52 130 12 220 54 304 142 65 69 94 115
198 319 59 117 120 219 172 290 80 109 129 195 164 288 10 26 22 50 27 53 5 3
44 9 86 13 161 16 231 -21 502 -268 295 -269 424 -345 633 -371 186 -23 321
21 440 142 121 123 203 284 347 683 127 352 203 488 355 633 133 128 282 205
510 262 186 47 317 65 385 52 166 -31 330 -166 491 -406 33 -49 72 -112 85
-139 l26 -49 -26 -92 c-168 -604 -103 -1282 177 -1830 228 -448 597 -783 1010
-921 181 -60 249 -70 472 -70 174 1 212 4 295 24 162 40 145 46 146 -51 6
-324 233 -618 633 -818 443 -222 1057 -302 1621 -210 580 95 1045 365 1219
708 16 31 27 42 39 38 259 -78 709 -96 1022 -42 l75 13 70 -42 c342 -206 764
-318 1251 -332 700 -19 1311 168 1675 514 l90 86 32 -24 c249 -186 510 -284
820 -309 686 -56 1323 342 1491 932 72 251 55 513 -49 750 -20 46 -39 88 -41
94 -3 6 33 1 84 -12 134 -34 278 -48 432 -41 369 16 689 148 926 382 206 204
303 426 304 692 0 161 -32 292 -106 433 -16 30 -30 58 -32 62 -2 4 59 5 135 2
592 -27 1151 245 1367 666 77 149 91 210 91 395 0 154 -2 163 -33 255 -85 247
-263 447 -528 596 l-61 34 8 47 c4 27 8 53 8 59 1 6 27 18 59 28 100 30 254
113 362 195 260 196 494 495 675 866 360 735 412 1489 146 2132 l-29 71 87 6
c231 18 386 48 558 107 629 217 1007 740 1105 1529 20 160 17 559 -5 695 -55
340 -168 611 -355 850 -134 172 -315 327 -501 430 l-90 50 7 50 c14 97 7 454
-12 579 -78 533 -336 1020 -701 1325 -290 241 -600 369 -966 397 l-86 6 20 67
c17 55 21 96 21 241 1 204 -15 280 -89 437 -109 232 -301 425 -540 546 -127
63 -345 127 -435 127 -17 0 -32 6 -35 13 -4 14 -20 362 -41 916 -14 386 -21
453 -64 621 -64 252 -204 525 -377 740 -71 88 -233 246 -318 311 -291 223
-639 364 -1008 410 -159 19 -473 7 -625 -25 -140 -30 -278 -72 -396 -122 -44
-19 -83 -34 -86 -34 -3 0 -6 53 -7 118 -5 391 -245 758 -608 933 -316 153
-660 154 -974 4 -51 -25 -106 -54 -122 -66 -35 -25 -45 -20 -53 26 -13 70 -59
191 -107 285 -178 347 -506 590 -898 664 -109 21 -339 21 -457 1 -298 -52
-591 -227 -769 -460 -32 -42 -63 -74 -69 -71 -6 2 -78 33 -161 69 -180 77
-243 94 -398 109 -273 26 -693 -41 -1092 -173 -198 -66 -322 -125 -377 -181
-24 -23 -68 -81 -99 -128 -66 -100 -115 -146 -165 -156 -88 -16 -249 18 -454
98 -333 130 -405 143 -759 135 -143 -3 -307 -13 -371 -21 -409 -56 -779 -179
-1035 -344 -83 -53 -286 -254 -370 -367 -225 -302 -298 -570 -224 -835 40
-147 107 -250 261 -403 96 -95 128 -139 128 -175 0 -45 -31 -92 -79 -120 -45
-26 -51 -27 -246 -32 -239 -6 -249 -10 -295 -100 -46 -91 -63 -178 -57 -285 7
-113 32 -202 103 -363 101 -231 107 -250 108 -337 1 -97 -21 -151 -92 -222
-112 -112 -293 -141 -476 -77 -343 121 -373 128 -513 122 -75 -3 -108 -9 -139
-26 -93 -48 -144 -131 -163 -262 -7 -45 -11 -210 -9 -410 l1 -335 -27 -90
c-15 -49 -48 -133 -74 -185 l-47 -95 -250 -6 c-234 -7 -253 -6 -295 12 -119
52 -267 261 -461 649 -171 344 -311 672 -699 1640 -327 816 -530 1281 -760
1740 -616 1231 -1236 1933 -1949 2204 -110 43 -308 92 -421 106 -55 7 -1112
14 -2975 20 -1589 5 -3074 11 -3300 13 -225 3 -439 1 -475 -4z m4600 -549
c2316 -8 2115 -2 2337 -75 652 -217 1265 -977 1893 -2350 185 -405 324 -737
670 -1600 430 -1072 613 -1466 835 -1800 206 -309 405 -480 615 -529 117 -28
367 -22 1585 34 1324 61 1826 66 2122 19 l72 -12 7 -75 c11 -124 -3 -492 -26
-662 -126 -945 -518 -1799 -1085 -2365 -153 -154 -252 -234 -435 -357 -357
-238 -776 -389 -1260 -455 -208 -28 -707 -26 -925 4 -319 44 -584 99 -1200
249 -738 180 -1028 241 -1360 286 -147 19 -213 22 -480 22 -271 0 -328 -3
-450 -22 -402 -63 -701 -191 -991 -424 -43 -35 -162 -144 -264 -243 -265 -258
-340 -317 -480 -373 -191 -77 -517 -70 -910 20 -249 56 -481 127 -1170 358
-377 126 -761 252 -853 280 -1065 319 -1706 314 -2408 -17 -57 -27 -198 -101
-314 -165 -515 -283 -712 -360 -1041 -403 -149 -19 -442 -19 -609 0 -375 44
-641 122 -1380 403 -810 308 -1144 382 -1670 369 -428 -11 -737 -61 -1494
-243 -788 -189 -985 -222 -1371 -231 -194 -4 -271 -2 -370 11 -411 54 -849
217 -1195 444 -156 102 -249 178 -360 293 -358 371 -351 722 20 968 239 158
541 272 1741 655 748 240 1319 452 1884 701 213 94 708 335 914 446 469 253
1056 618 1271 790 393 315 798 903 1221 1774 185 382 328 705 694 1565 430
1010 649 1480 874 1873 290 507 550 791 774 847 22 5 518 7 1262 3 674 -3
2163 -9 3310 -13z m-11168 -4521 c481 -384 897 -800 1282 -1280 143 -179 356
-469 356 -485 0 -12 -347 -195 -610 -322 -625 -303 -1309 -570 -2145 -840
-480 -155 -942 -302 -948 -302 -4 0 13 28 37 63 24 34 456 771 960 1637 952
1634 944 1620 950 1620 2 0 55 -41 118 -91z m35370 -4719 c277 -299 413 -714
395 -1205 -16 -425 -107 -750 -287 -1025 -82 -124 -235 -277 -360 -359 -88
-57 -95 -60 -98 -41 -4 24 176 2721 184 2758 4 22 6 22 50 -15 26 -20 78 -71
116 -113z m-522 -1035 c-38 -544 -70 -1003 -72 -1019 -2 -19 -56 152 -152 476
l-148 505 16 50 c23 69 53 232 62 332 l7 85 76 100 c95 125 168 242 228 368
26 53 48 96 49 95 1 -1 -29 -447 -66 -992z m-20005 60 c159 -17 340 -44 370
-55 11 -4 57 -59 102 -121 315 -440 496 -913 559 -1459 22 -195 15 -565 -15
-760 -82 -534 -297 -1027 -632 -1451 -96 -123 -358 -387 -479 -483 -135 -107
-363 -255 -515 -333 -444 -226 -893 -334 -1390 -334 -477 0 -904 98 -1330 306
-594 290 -1084 771 -1380 1355 -161 319 -253 606 -306 960 -31 204 -34 612 -6
810 39 276 118 561 222 807 l48 111 166 -57 c91 -32 203 -70 248 -85 l81 -27
-44 -95 c-60 -127 -137 -362 -167 -509 -44 -208 -52 -298 -52 -540 1 -261 15
-381 72 -610 175 -702 655 -1305 1299 -1632 371 -189 726 -273 1147 -273 416
0 749 76 1112 254 715 351 1214 999 1369 1776 38 194 49 339 43 570 -8 295
-52 530 -148 791 -140 383 -396 760 -688 1013 -50 44 -91 81 -91 83 0 9 285 1
405 -12z m-6440 -181 c166 -20 178 -23 172 -42 -3 -10 -28 -78 -56 -152 -133
-360 -221 -747 -263 -1160 -19 -191 -16 -679 5 -880 81 -739 321 -1425 710
-2023 38 -59 68 -109 66 -111 -10 -10 -359 -102 -554 -147 -935 -214 -2019
-329 -3122 -329 l-373 0 0 200 c0 144 -4 222 -16 277 -69 334 -341 646 -649
743 -65 21 -104 23 -535 36 -436 13 -2904 87 -3945 118 -502 16 -532 19 -638
73 -109 55 -192 165 -218 290 -15 74 -6 272 15 339 19 60 82 137 137 164 62
32 155 50 289 57 229 11 2842 -37 3760 -69 190 -7 464 -12 610 -12 229 0 281
3 384 22 329 61 588 202 742 405 57 76 128 223 143 297 9 44 51 913 51 1052
l0 37 240 0 c132 0 245 3 251 6 7 5 8 -36 2 -132 -40 -681 54 -1288 267 -1728
202 -417 467 -601 741 -515 317 98 592 589 704 1253 41 247 50 367 50 677 0
383 -30 652 -105 938 -16 63 -30 121 -30 127 0 16 215 105 335 139 258 72 514
88 830 50z m5347 -5 c159 -80 323 -197 460 -328 91 -87 224 -238 216 -247 -3
-2 -333 -3 -735 -2 l-730 3 201 195 c111 107 239 225 286 261 82 64 215 149
232 149 5 0 36 -14 70 -31z m2545 -111 l293 -71 31 -76 c121 -291 218 -678
266 -1061 25 -205 25 -695 0 -900 -77 -623 -270 -1180 -586 -1688 -603 -970
-1601 -1654 -2711 -1856 -289 -53 -392 -61 -750 -61 -370 1 -509 14 -815 76
-1086 222 -2035 886 -2636 1845 -152 244 -308 576 -399 853 -301 911 -275
1870 72 2766 28 72 52 132 54 134 5 6 432 -120 455 -135 4 -2 -11 -45 -33 -95
-85 -199 -174 -492 -217 -721 -72 -380 -80 -823 -21 -1209 202 -1326 1150
-2445 2428 -2866 237 -78 473 -129 737 -159 171 -19 550 -22 720 -5 845 86
1599 444 2195 1041 592 592 948 1337 1035 2164 19 187 19 547 0 731 -47 442
-163 842 -355 1228 -38 75 -66 137 -62 137 4 0 139 -32 299 -72z m18077 -422
c37 -125 70 -236 73 -245 3 -9 -10 7 -30 35 -48 69 -161 171 -241 218 l-67 39
69 71 c37 39 79 86 91 105 18 24 26 30 31 20 4 -8 38 -117 74 -243z m226 -764
c51 -172 90 -315 89 -316 -2 -2 -42 -10 -89 -19 -107 -21 -279 -37 -391 -37
l-86 0 -43 61 c-23 33 -41 62 -39 63 2 2 33 18 69 36 128 64 251 169 312 265
35 56 65 140 73 208 4 32 9 57 10 55 1 -2 44 -144 95 -316z m-19847 81 c30
-109 57 -234 57 -264 0 -19 -29 -19 -1966 -19 l-1965 0 7 48 c8 57 58 266 73
305 l11 27 1878 0 1879 0 26 -97z m57 -840 c0 -34 -40 -208 -66 -295 l-27 -88
-1870 2 -1870 3 -19 55 c-21 61 -63 231 -73 298 l-7 42 1966 0 c1866 0 1966
-1 1966 -17z m-431 -975 c-75 -92 -233 -242 -330 -315 -295 -221 -619 -351
-984 -394 -159 -19 -452 -6 -605 26 -363 76 -681 236 -950 479 -68 61 -229
236 -230 249 0 4 707 7 1571 7 l1571 0 -43 -52z m-4989 -1803 c0 -2 48 -185
106 -406 58 -220 104 -402 102 -404 -11 -10 -375 -140 -488 -174 -249 -74
-666 -179 -675 -169 -1 2 -28 192 -59 423 -31 231 -59 429 -61 441 -4 19 4 23
103 43 250 52 772 188 897 235 40 15 75 20 75 11z m-1610 -367 c0 -2 27 -199
60 -438 33 -239 56 -437 52 -441 -25 -22 -958 -109 -1173 -109 l-67 0 5 398
c2 218 6 411 9 428 4 32 5 32 82 39 282 24 759 81 927 109 87 15 105 17 105
14z m-1663 -584 c-4 -229 -9 -419 -12 -422 -12 -12 -1108 26 -1118 38 -1 3 -1
182 1 399 l4 393 197 -6 c108 -3 320 -2 471 2 151 5 317 9 369 10 l94 2 -6
-416z m9571 334 c20 -80 22 -110 12 -176 -29 -177 -151 -301 -330 -334 -112
-21 -259 20 -337 95 l-32 30 107 59 c121 68 385 240 482 316 36 28 70 51 76
51 6 1 16 -18 22 -41z m-4990 -388 c82 -44 154 -80 160 -80 7 0 12 -6 12 -13
0 -22 -170 -228 -274 -332 -105 -104 -214 -201 -219 -194 -2 2 -34 121 -71
263 -54 207 -65 261 -54 267 7 4 72 43 143 87 72 44 136 80 142 81 7 0 80 -35
161 -79z m5487 -222 c135 -172 156 -205 177 -272 40 -131 6 -282 -87 -385 -50
-55 -161 -109 -240 -117 -115 -12 -241 29 -318 104 -39 38 -189 224 -191 237
-1 4 36 19 81 35 201 67 404 230 501 402 15 27 29 48 32 48 3 -1 23 -24 45
-52z m-4626 -127 c286 -84 617 -145 926 -171 138 -11 579 -12 705 -1 47 4 86
7 86 7 1 -1 -85 -82 -190 -182 -2444 -2316 -4698 -3743 -6386 -4044 -236 -42
-338 -51 -600 -57 -295 -6 -435 5 -747 57 -446 75 -807 202 -1052 370 -109 74
-244 212 -299 305 -227 383 -133 928 271 1576 63 102 216 312 279 383 l35 40
279 -27 c596 -58 923 -76 1464 -84 1219 -16 2183 112 3028 402 823 283 1477
729 1904 1299 49 65 96 132 105 148 10 15 19 28 21 28 2 0 79 -22 171 -49z
m-1810 -13 c20 -66 152 -580 149 -582 -2 -2 -41 -24 -88 -49 -119 -64 -352
-166 -528 -231 -252 -92 -660 -206 -671 -187 -9 14 -103 712 -97 718 3 3 83
23 178 44 313 71 755 203 963 288 39 16 73 29 77 30 3 1 11 -14 17 -31z
m-1723 -794 c28 -203 50 -370 50 -371 -1 0 -91 -13 -201 -27 -341 -43 -625
-65 -1071 -82 l-171 -6 5 369 c2 202 5 369 6 369 0 1 98 7 216 13 346 19 790
61 1010 95 47 8 90 13 95 11 6 -1 33 -168 61 -371z m-2616 256 c113 -5 315
-10 449 -10 l244 0 -6 -356 c-3 -196 -8 -359 -12 -362 -16 -16 -1182 61 -1199
79 -2 2 5 54 14 114 10 61 26 191 35 290 9 99 19 200 21 224 l6 44 121 -7 c67
-4 214 -11 327 -16z"/>
<path d="M22505 32186 c-60 -28 -127 -99 -143 -154 -19 -64 -14 -141 22 -324
199 -1001 607 -2039 1115 -2838 251 -395 514 -731 796 -1017 121 -122 134
-133 189 -148 98 -29 199 -2 268 69 50 51 71 100 76 174 7 100 -12 135 -151
281 -416 437 -755 927 -1049 1516 -321 640 -582 1408 -723 2118 -19 97 -41
190 -49 206 -23 43 -109 116 -154 129 -64 19 -141 15 -197 -12z"/>
</g>
</svg>
